<?xml version="1.0" encoding="UTF-8"?>
<!-- Generator: visioncortex VTracer 0.6.12 -->
<svg version="1.1" xmlns="http://www.w3.org/2000/svg" width="184" height="54" xmlns:c2pa="http://c2pa.org/manifest"><metadata><c2pa:manifest>AAAWgmp1bWIAAAAeanVtZGMycGEAEQAQgAAAqgA4m3EDYzJwYQAAABZcanVtYgAAAEdqdW1kYzJtYQARABCAAACqADibcQN1cm46YzJwYTpiNmNkNmVhYi00NTg3LTQ3MmMtYjdhMS05YzRiNDJjMDk5NWIAAAADl2p1bWIAAAApanVtZGMyYXMAEQAQgAAAqgA4m3EDYzJwYS5hc3NlcnRpb25zAAAAALxqdW1iAAAARGp1bWRjYm9yABEAEIAAAKoAOJtxE2MycGEuaW5ncmVkaWVudC52MwAAAAAYYzJzaMmbRCaT/AoEUSNi2sULk6AAAABwY2JvcqNpZGM6Zm9ybWF0bWltYWdlL3N2Zyt4bWxqaW5zdGFuY2VJRHgseG1wOmlpZDpiZjc3NzQ3Yy1iYTUzLTRkMDctYjVlMC0yNzhkOGM4Y2NjNThscmVsYXRpb25zaGlwaHBhcmVudE9mAAAB4mp1bWIAAABBanVtZGNib3IAEQAQgAAAqgA4m3ETYzJwYS5hY3Rpb25zLnYyAAAAABhjMnNo/LZm3nf819Hto42/+H4dfAAAAZljYm9yomdhY3Rpb25zgqJmYWN0aW9ua2MycGEub3BlbmVkanBhcmFtZXRlcnOha2luZ3JlZGllbnRzgaJjdXJseC1zZWxmI2p1bWJmPWMycGEuYXNzZXJ0aW9ucy9jMnBhLmluZ3JlZGllbnQudjNkaGFzaFggrQ2kVwmFqYk/4aJeCq2rwa3/E5vvXuh0VrhhWuxVNqykZmFjdGlvbngdY29tLmFudGhyb3BpYy5jbGF1ZGUucHJvdmlkZWRqcGFyYW1ldGVyc6F4H2NvbS5hbnRocm9waWMub3JpZ2luLWNvbmZpZGVuY2VndW5rbm93bmtkZXNjcmlwdGlvbnhmQ2xhdWRlIHByb3ZpZGVkIHRoaXMgZmlsZSBhdCB0aGUgcmVxdWVzdCBvZiBhIHVzZXIgYW5kIG1heSBoYXZlIGNyZWF0ZWQgb3IgbW9kaWZpZWQgdGhlIGZpbGUgY29udGVudHMubXNvZnR3YXJlQWdlbnShZG5hbWVmQ2xhdWRlcmFsbEFjdGlvbnNJbmNsdWRlZPUAAADIanVtYgAAAEBqdW1kY2JvcgARABCAAACqADibcRNjMnBhLmhhc2guZGF0YQAAAAAYYzJzaKqUFLtfge5oLCdHyaNvwLgAAACAY2JvcqVjYWxnZnNoYTI1NmNwYWRNAAAAAAAAAAAAAAAAAGRoYXNoWCDtDKRxZ1PwCG7dNr01DXPhabVNd5WszNyHZ76HGzIMNmRuYW1lbmp1bWJmIG1hbmlmZXN0amV4Y2x1c2lvbnOBomVzdGFydBjkZmxlbmd0aBkeBAAAAj5qdW1iAAAAJ2p1bWRjMmNsABEAEIAAAKoAOJtxA2MycGEuY2xhaW0udjIAAAACD2Nib3KlY2FsZ2ZzaGEyNTZpc2lnbmF0dXJleE1zZWxmI2p1bWJmPS9jMnBhL3VybjpjMnBhOmI2Y2Q2ZWFiLTQ1ODctNDcyYy1iN2ExLTljNGI0MmMwOTk1Yi9jMnBhLnNpZ25hdHVyZWppbnN0YW5jZUlEeCx4bXA6aWlkOjNlZDZhZTRlLTFmMmEtNDYxOS05MzEwLTc3MmEzOTM1NTQwM3JjcmVhdGVkX2Fzc2VydGlvbnODomN1cmx4LXNlbGYjanVtYmY9YzJwYS5hc3NlcnRpb25zL2MycGEuaW5ncmVkaWVudC52M2RoYXNoWCCtDaRXCYWpiT/hol4KravBrf8Tm+9e6HRWuGFa7FU2rKJjdXJseCpzZWxmI2p1bWJmPWMycGEuYXNzZXJ0aW9ucy9jMnBhLmFjdGlvbnMudjJkaGFzaFggfCKBbXSPGQdTYnndnPWGbyMseHaed8BNWsLPQTTu7m+iY3VybHgpc2VsZiNqdW1iZj1jMnBhLmFzc2VydGlvbnMvYzJwYS5oYXNoLmRhdGFkaGFzaFggsZBBqziRSTGu/yoK2VxcQPHvLJARprp0Mh/zf1NVi7Z0Y2xhaW1fZ2VuZXJhdG9yX2luZm+jZG5hbWVvQW50aHJvcGljIEZpbGVzZ3ZlcnNpb25lMS4wLjBrc3BlY1ZlcnNpb25lMi40LjAAABA4anVtYgAAAChqdW1kYzJjcwARABCAAACqADibcQNjMnBhLnNpZ25hdHVyZQAAABAIY2JvctKEWQISogEmGCFZAgowggIGMIIBjaADAgECAhRA5aAK7sI50L64g/oGQgU9Z1UTADAKBggqhkjOPQQDAzBJMRcwFQYDVQQKEw5BbnRocm9waWMsIFBCQzEuMCwGA1UEAxMlQW50aHJvcGljIENvbnRlbnQgQ3JlZGVudGlhbHMgUm9vdCBDQTAeFw0yNjA4MDcxODQzNTZaFw0yODA4MDYxOTQzNTZaMEQxFzAVBgNVBAoTDkFudGhyb3BpYywgUEJDMSkwJwYDVQQDEyBBbnRocm9waWMgQ2xhdWRlIENvbnRlbnQgU2lnbmluZzBZMBMGByqGSM49AgEGCCqGSM49AwEHA0IABJh6CmvLUBgFFNU0vUKlOVtE6djd17L5SuwX0LemFisBM3dkd/3cyjxFA3Qo5S46fX0/ihY0VZ7mfb9KF703t5OjWDBWMA4GA1UdDwEB/wQEAwIHgDAVBgNVHSUEDjAMBgorBgEEAYPoXgIBMAwGA1UdEwEB/wQCMAAwHwYDVR0jBBgwFoAUzlHiBIFOZFsj+OPEz5o+nMHXXMIwCgYIKoZIzj0EAwMDZwAwZAIwMXMdFJ4BetLLVY7ORuE9noqbbAZOZn/aArXyTwFAZfKrPzxF2vPoJNf1+UCdg1XGAjBwX1zd9WGqYkqmL5SFqw1QySjr1zJfpJM9+1rdDwSPLMOPOjKuiXjoU/pUUeG9RwmhY3BhZFkNngAAAAAAAAAAAAAAAAAAAAAAAAAAAAAAAAAAAAAAAAAAAAAAAAAAAAAAAAAAAAAAAAAAAAAAAAAAAAAAAAAAAAAAAAAAAAAAAAAAAAAAAAAAAAAAAAAAAAAAAAAAAAAAAAAAAAAAAAAAAAAAAAAAAAAAAAAAAAAAAAAAAAAAAAAAAAAAAAAAAAAAAAAAAAAAAAAAAAAAAAAAAAAAAAAAAAAAAAAAAAAAAAAAAAAAAAAAAAAAAAAAAAAAAAAAAAAAAAAAAAAAAAAAAAAAAAAAAAAAAAAAAAAAAAAAAAAAAAAAAAAAAAAAAAAAAAAAAAAAAAAAAAAAAAAAAAAAAAAAAAAAAAAAAAAAAAAAAAAAAAAAAAAAAAAAAAAAAAAAAAAAAAAAAAAAAAAAAAAAAAAAAAAAAAAAAAAAAAAAAAAAAAAAAAAAAAAAAAAAAAAAAAAAAAAAAAAAAAAAAAAAAAAAAAAAAAAAAAAAAAAAAAAAAAAAAAAAAAAAAAAAAAAAAAAAAAAAAAAAAAAAAAAAAAAAAAAAAAAAAAAAAAAAAAAAAAAAAAAAAAAAAAAAAAAAAAAAAAAAAAAAAAAAAAAAAAAAAAAAAAAAAAAAAAAAAAAAAAAAAAAAAAAAAAAAAAAAAAAAAAAAAAAAAAAAAAAAAAAAAAAAAAAAAAAAAAAAAAAAAAAAAAAAAAAAAAAAAAAAAAAAAAAAAAAAAAAAAAAAAAAAAAAAAAAAAAAAAAAAAAAAAAAAAAAAAAAAAAAAAAAAAAAAAAAAAAAAAAAAAAAAAAAAAAAAAAAAAAAAAAAAAAAAAAAAAAAAAAAAAAAAAAAAAAAAAAAAAAAAAAAAAAAAAAAAAAAAAAAAAAAAAAAAAAAAAAAAAAAAAAAAAAAAAAAAAAAAAAAAAAAAAAAAAAAAAAAAAAAAAAAAAAAAAAAAAAAAAAAAAAAAAAAAAAAAAAAAAAAAAAAAAAAAAAAAAAAAAAAAAAAAAAAAAAAAAAAAAAAAAAAAAAAAAAAAAAAAAAAAAAAAAAAAAAAAAAAAAAAAAAAAAAAAAAAAAAAAAAAAAAAAAAAAAAAAAAAAAAAAAAAAAAAAAAAAAAAAAAAAAAAAAAAAAAAAAAAAAAAAAAAAAAAAAAAAAAAAAAAAAAAAAAAAAAAAAAAAAAAAAAAAAAAAAAAAAAAAAAAAAAAAAAAAAAAAAAAAAAAAAAAAAAAAAAAAAAAAAAAAAAAAAAAAAAAAAAAAAAAAAAAAAAAAAAAAAAAAAAAAAAAAAAAAAAAAAAAAAAAAAAAAAAAAAAAAAAAAAAAAAAAAAAAAAAAAAAAAAAAAAAAAAAAAAAAAAAAAAAAAAAAAAAAAAAAAAAAAAAAAAAAAAAAAAAAAAAAAAAAAAAAAAAAAAAAAAAAAAAAAAAAAAAAAAAAAAAAAAAAAAAAAAAAAAAAAAAAAAAAAAAAAAAAAAAAAAAAAAAAAAAAAAAAAAAAAAAAAAAAAAAAAAAAAAAAAAAAAAAAAAAAAAAAAAAAAAAAAAAAAAAAAAAAAAAAAAAAAAAAAAAAAAAAAAAAAAAAAAAAAAAAAAAAAAAAAAAAAAAAAAAAAAAAAAAAAAAAAAAAAAAAAAAAAAAAAAAAAAAAAAAAAAAAAAAAAAAAAAAAAAAAAAAAAAAAAAAAAAAAAAAAAAAAAAAAAAAAAAAAAAAAAAAAAAAAAAAAAAAAAAAAAAAAAAAAAAAAAAAAAAAAAAAAAAAAAAAAAAAAAAAAAAAAAAAAAAAAAAAAAAAAAAAAAAAAAAAAAAAAAAAAAAAAAAAAAAAAAAAAAAAAAAAAAAAAAAAAAAAAAAAAAAAAAAAAAAAAAAAAAAAAAAAAAAAAAAAAAAAAAAAAAAAAAAAAAAAAAAAAAAAAAAAAAAAAAAAAAAAAAAAAAAAAAAAAAAAAAAAAAAAAAAAAAAAAAAAAAAAAAAAAAAAAAAAAAAAAAAAAAAAAAAAAAAAAAAAAAAAAAAAAAAAAAAAAAAAAAAAAAAAAAAAAAAAAAAAAAAAAAAAAAAAAAAAAAAAAAAAAAAAAAAAAAAAAAAAAAAAAAAAAAAAAAAAAAAAAAAAAAAAAAAAAAAAAAAAAAAAAAAAAAAAAAAAAAAAAAAAAAAAAAAAAAAAAAAAAAAAAAAAAAAAAAAAAAAAAAAAAAAAAAAAAAAAAAAAAAAAAAAAAAAAAAAAAAAAAAAAAAAAAAAAAAAAAAAAAAAAAAAAAAAAAAAAAAAAAAAAAAAAAAAAAAAAAAAAAAAAAAAAAAAAAAAAAAAAAAAAAAAAAAAAAAAAAAAAAAAAAAAAAAAAAAAAAAAAAAAAAAAAAAAAAAAAAAAAAAAAAAAAAAAAAAAAAAAAAAAAAAAAAAAAAAAAAAAAAAAAAAAAAAAAAAAAAAAAAAAAAAAAAAAAAAAAAAAAAAAAAAAAAAAAAAAAAAAAAAAAAAAAAAAAAAAAAAAAAAAAAAAAAAAAAAAAAAAAAAAAAAAAAAAAAAAAAAAAAAAAAAAAAAAAAAAAAAAAAAAAAAAAAAAAAAAAAAAAAAAAAAAAAAAAAAAAAAAAAAAAAAAAAAAAAAAAAAAAAAAAAAAAAAAAAAAAAAAAAAAAAAAAAAAAAAAAAAAAAAAAAAAAAAAAAAAAAAAAAAAAAAAAAAAAAAAAAAAAAAAAAAAAAAAAAAAAAAAAAAAAAAAAAAAAAAAAAAAAAAAAAAAAAAAAAAAAAAAAAAAAAAAAAAAAAAAAAAAAAAAAAAAAAAAAAAAAAAAAAAAAAAAAAAAAAAAAAAAAAAAAAAAAAAAAAAAAAAAAAAAAAAAAAAAAAAAAAAAAAAAAAAAAAAAAAAAAAAAAAAAAAAAAAAAAAAAAAAAAAAAAAAAAAAAAAAAAAAAAAAAAAAAAAAAAAAAAAAAAAAAAAAAAAAAAAAAAAAAAAAAAAAAAAAAAAAAAAAAAAAAAAAAAAAAAAAAAAAAAAAAAAAAAAAAAAAAAAAAAAAAAAAAAAAAAAAAAAAAAAAAAAAAAAAAAAAAAAAAAAAAAAAAAAAAAAAAAAAAAAAAAAAAAAAAAAAAAAAAAAAAAAAAAAAAAAAAAAAAAAAAAAAAAAAAAAAAAAAAAAAAAAAAAAAAAAAAAAAAAAAAAAAAAAAAAAAAAAAAAAAAAAAAAAAAAAAAAAAAAAAAAAAAAAAAAAAAAAAAAAAAAAAAAAAAAAAAAAAAAAAAAAAAAAAAAAAAAAAAAAAAAAAAAAAAAAAAAAAAAAAAAAAAAAAAAAAAAAAAAAAAAAAAAAAAAAAAAAAAAAAAAAAAAAAAAAAAAAAAAAAAAAAAAAAAAAAAAAAAAAAAAAAAAAAAAAAAAAAAAAAAAAAAAAAAAAAAAAAAAAAAAAAAAAAAAAAAAAAAAAAAAAAAAAAAAAAAAAAAAAAAAAAAAAAAAAAAAAAAAAAAAAAAAAAAAAAAAAAAAAAAAAAAAAAAAAAAAAAAAAAAAAAAAAAAAAAAAAAAAAAAAAAAAAAAAAAAAAAAAAAAAAAAAAAAAAAAAAAAAAAAAAAAAAAAAAAAAAAAAAAAAAAAAAAAAAAAAAAAAAAAAAAAAAAAAAAAAAAAAAAAAAAAAAAAAAAAAAAAAAAAAAAAAAAAAAAAAAAAAAAAAAAAAAAAAAAAAAAAAAAAAAAAAAAAAAAAAAAAAAAAAAAAAAAAAAAAAAAAAAAAAAAAAAAAAAAAAAAAAAAAAAAAAAAAAAAAAAAAAAAAAAAAAAAAAAAAAAAAAAAAAAAAAAAAAAAAAAAAAAAAAAAAAAAAAAAAAAAAAAAAAAAAAAAAAAAAAAAAAAAAAAAAAAAAAAAAAAAAAAAAAAAAAAAAAAAAAAAAAAAAAAAAAAAAAAAAAAAAAAAAAAAAAAAAAAAAAAAAAAAAAAAAAAAAAAAAAAAAAAAAAAAAAAAAAAAAAAAAAAAAAAAAAAAAAAAAAAAAAAAAAAAAAAAAAAAAAAAAAAAAAAAAAAAAAAAAAAAAAAAAAAAAAAAAAAAAAAAAAAAAAAAAAAAAAAAAAAAAAAAAAAAAAAAAAAAAAAAAAAAAAAAAAAAAAAAAAAAAAAAAAAAAAAAAAAAAAAAAAAAAAAAAAAAAAAAAAAAAAAAAAAAAAAAAAAAAAAAAAAAAAAAAAAAAAAAAAAAAAAAAAAAAAAAAAAAAAAAAAAAAAAAAAAAAAAAAAAAAAAAAAAAAAAAAAAAAAAAAAAAAAAAAAAAAAAAAAAAAAAAAAAAAAAAAAAAAAAAAAAAAAAAAAAAAAAAAAAAAAAAAAAAAAAAAAAAAAAAAAAAAAAAAAAAAAAAAAAAAAAAAAAAAAAAAAAAAAAAAAAAAAAAAAAAAAAAAAAAAAAAAAAAAAAAAAAAAAAAAAAAAAAAAAAAAAAAAAAAAAAAAAAAAAAAAAAAAAAAAAAAAAAAAAAAAAAAAAAAAAAAAAAAAAAAAAAAAAAAAAAAAAAAAAAAAAAAAAAAAAAAAAAAAAAAAAAAAAAAAAAAAAAAAAAAAAAAAAAAAAAAAAAAAAAAAAAAAAAAAAAAAAAAAAAAAAAAAAAAAAAAAAAAAAAAAAAAAAAAAAAAAAAAAAAAAAAAAAAAAAAAAAAAAAAAAAAAAAAAAAAAAAAAAAAAAAAAAAAAAAAAAAAAAAAAAAAAAAAAAAAAAAAAAAAAAAAAAPZYQJKiQngERk+4KkO64KxcwY/+hEizJHaGl33NE6nEaZmH7IsQjLa7RVtaYlH/dL0Luvfei8rttdiMwhtxe/hGfW8=</c2pa:manifest></metadata>
<path d="M0 0 C60.72 0 121.44 0 184 0 C184 17.82 184 35.64 184 54 C123.28 54 62.56 54 0 54 C0 36.18 0 18.36 0 0 Z " fill="#F2F2F2" transform="translate(0,0)"/>
<path d="M0 0 C31.35 0 62.7 0 95 0 C102 16 102 16 104 21 C101.03 20.67 98.06 20.34 95 20 C95 19.34 95 18.68 95 18 C93.742 18.124 92.484 18.247 91.188 18.375 C90.834 18.41 90.834 18.41 89.043 18.586 C87 19 87 19 84 21 C80.541 21.277 77.333 20.969 74 20 C71.5 16.938 71.5 16.938 70 14 C69.34 14 68.68 14 68 14 C67.67 15.98 67.34 17.96 67 20 C58.429 21.286 58.429 21.286 55 20 C55 19.34 55 18.68 55 18 C52.36 18 49.72 18 47 18 C47 18.66 47 19.32 47 20 C38.429 21.286 38.429 21.286 35 20 C35 17.69 35 15.38 35 13 C32.36 13 29.72 13 27 13 C27 15.31 27 17.62 27 20 C18 20 9 20 0 20 C0 13.4 0 6.8 0 0 Z " fill="#1150A3" transform="translate(0,0)"/>
<path d="M0 0 C21.12 0 42.24 0 64 0 C64 6.6 64 13.2 64 20 C57 20 57 20 55.004 18.469 C54.528 17.819 54.053 17.169 53.562 16.5 C53.069 15.85 52.575 15.201 52.066 14.531 C51.714 14.026 51.363 13.521 51 13 C50.67 15.31 50.34 17.62 50 20 C41.429 21.286 41.429 21.286 38 20 C38 19.34 38 18.68 38 18 C35.36 18 32.72 18 30 18 C30 18.66 30 19.32 30 20 C22.74 20 15.48 20 8 20 C4.863 13.301 2.361 7.082 0 0 Z " fill="#99B0CD" transform="translate(95,0)"/>
<path d="M0 0 C9.9 0 19.8 0 30 0 C26 10 26 10 25 11 C25.206 11.784 25.412 12.568 25.625 13.375 C26 16 26 16 24.75 17.75 C21.22 20.271 18 20.108 13.812 20.062 C13.269 20.058 13.269 20.058 10.52 20.035 C9.688 20.024 8.857 20.012 8 20 C7.223 18.357 6.454 16.71 5.688 15.062 C5.258 14.146 4.829 13.229 4.387 12.285 C2.696 8.279 1.375 4.125 0 0 Z " fill="#A7BFDB" transform="translate(95,0)"/>
<path d="M0 0 C7.59 0 15.18 0 23 0 C18 6 18 6 16 7 C17.06 10.275 18.393 12.614 20.625 15.188 C23 18 23 18 23 20 C19.619 20.29 16.371 20.445 13 20 C10.5 17.563 10.5 17.563 9 15 C8.34 14.67 7.68 14.34 7 14 C7 15.98 7 17.96 7 20 C4.69 20 2.38 20 0 20 C0 13.4 0 6.8 0 0 Z " fill="#9FB8D6" transform="translate(160,0)"/>
<path d="M0 0 C0.833 0.005 1.665 0.01 2.523 0.016 C3.422 0.019 4.321 0.022 5.248 0.026 C5.721 0.03 5.721 0.03 8.113 0.051 C9.062 0.056 10.012 0.06 10.99 0.065 C13.344 0.077 15.697 0.093 18.051 0.114 C18.051 0.444 18.051 0.774 18.051 1.114 C15.741 1.114 13.431 1.114 11.051 1.114 C11.334 3.198 11.627 5.281 11.926 7.364 C12.007 7.944 12.007 7.944 12.418 10.879 C12.976 13.731 13.72 15.588 15.051 18.114 C15.051 19.104 15.051 20.094 15.051 21.114 C12.081 20.784 9.111 20.454 6.051 20.114 C6.051 19.454 6.051 18.794 6.051 18.114 C3.411 18.114 0.771 18.114 -1.949 18.114 C-1.949 18.774 -1.949 19.434 -1.949 20.114 C-5.249 20.114 -8.549 20.114 -11.949 20.114 C-8.949 18.114 -8.949 18.114 -6.949 18.114 C-6.949 15.804 -6.949 13.494 -6.949 11.114 C-7.609 11.114 -8.269 11.114 -8.949 11.114 C-8.619 10.454 -8.289 9.794 -7.949 9.114 C-7.289 9.444 -6.629 9.774 -5.949 10.114 C-5.745 9.475 -5.54 8.837 -5.328 8.18 C-5.059 7.354 -4.79 6.527 -4.512 5.676 C-4.379 5.264 -4.379 5.264 -3.703 3.18 C-2.598 0.151 -2.598 0.151 0 0 Z " fill="#9AAEC7" transform="translate(126.949462890625,-0.113525390625)"/>
<path d="M0 0 C0 6.27 0 12.54 0 19 C-6.833 12.167 -6.833 12.167 -9 9 C-7.909 5.727 -7.082 4.955 -4.5 2.812 C-3.871 2.283 -3.242 1.753 -2.594 1.207 C-1 0 -1 0 0 0 Z " fill="#FFFFFF" transform="translate(184,0)"/>
<path d="M0 0 C-1.98 4.62 -3.96 9.24 -6 14 C-7.65 12.35 -9.3 10.7 -11 9 C-11 5 -11 5 -9.609 3.262 C-8.996 2.742 -8.382 2.223 -7.75 1.688 C-7.147 1.155 -6.543 0.623 -5.922 0.074 C-4 -1 -4 -1 0 0 Z " fill="#FFFFFF" transform="translate(87,1)"/>
<path d="M0 0 C7.59 0 15.18 0 23 0 C22.34 0.66 21.68 1.32 21 2 C19.948 1.917 18.896 1.835 17.812 1.75 C13.108 2.058 11.66 3.513 8.383 6.688 C7 8 7 8 6 8 C6 5.69 6 3.38 6 1 C4.35 1 2.7 1 1 1 C1 7.27 1 13.54 1 20 C0.67 20 0.34 20 0 20 C0 13.4 0 6.8 0 0 Z " fill="#6E7C8E" transform="translate(160,0)"/>
<path d="M0 0 C1.65 0 3.3 0 5 0 C7 2 7 2 7.25 5 C7 8 7 8 5 10 C3.35 10 1.7 10 0 10 C0 6.7 0 3.4 0 0 Z " fill="#FFFFFF" transform="translate(7,5)"/>
<path d="M0 0 C2.64 0 5.28 0 8 0 C8.043 2 8.041 4 8 6 C7 7 7 7 3.438 7.062 C2.303 7.042 1.169 7.021 0 7 C0 4.69 0 2.38 0 0 Z " fill="#FFFFFF" transform="translate(27,0)"/>
<path d="M0 0 C7.26 0 14.52 0 22 0 C22 0.33 22 0.66 22 1 C16.39 1 10.78 1 5 1 C5 4.3 5 7.6 5 11 C3 9 3 9 0 0 Z " fill="#555C6A" transform="translate(95,0)"/>
<path d="M0 0 C1.65 0 3.3 0 5 0 C5 1.98 5 3.96 5 6 C3.35 6.33 1.7 6.66 0 7 C0 4.69 0 2.38 0 0 Z " fill="#FFFFFF" transform="translate(177,29)"/>
<path d="M0 0 C2.31 0 4.62 0 7 0 C7 2.97 7 5.94 7 9 C4.041 6.245 1.963 3.534 0 0 Z " fill="#FFFFFF" transform="translate(145,0)"/>
<path d="M0 0 C2.64 0 5.28 0 8 0 C6.68 3.3 5.36 6.6 4 10 C3.34 9.67 2.68 9.34 2 9 C2.33 6.69 2.66 4.38 3 2 C2.01 1.67 1.02 1.34 0 1 C0 0.67 0 0.34 0 0 Z " fill="#FFFFFF" transform="translate(117,0)"/>
<path d="M0 0 C1.65 0 3.3 0 5 0 C3.68 3.3 2.36 6.6 1 10 C0.67 10 0.34 10 0 10 C0 6.7 0 3.4 0 0 Z " fill="#FFFFFF" transform="translate(42,0)"/>
<path d="M0 0 C1.32 0 2.64 0 4 0 C4 2.97 4 5.94 4 9 C1.314 6.314 0.94 3.624 0 0 Z " fill="#FFFFFF" transform="translate(55,0)"/>
<path d="M0 0 C1.98 0 3.96 0 6 0 C4.358 2.021 2.691 4.02 1 6 C0.67 6 0.34 6 0 6 C0 4.02 0 2.04 0 0 Z " fill="#FFFFFF" transform="translate(167,0)"/>
<path d="M0 0 C1.32 0 2.64 0 4 0 C4 2.97 4 5.94 4 9 C2.009 6.014 1.059 3.403 0 0 Z " fill="#FFFFFF" transform="translate(95,0)"/>
<path d="M0 0 C1.98 0 3.96 0 6 0 C4.358 2.021 2.691 4.02 1 6 C0.67 6 0.34 6 0 6 C0 4.02 0 2.04 0 0 Z " fill="#FFFFFF" transform="translate(67,0)"/>
<path d="M0 0 C2 2 2 2 2 5 C-0.97 4.67 -3.94 4.34 -7 4 C-6.67 3.34 -6.34 2.68 -6 2 C-5.01 2.165 -5.01 2.165 0 3 C0 2.01 0 1.02 0 0 Z " fill="#6F7D90" transform="translate(140,16)"/>
</svg>
